# xmcd
#
# Track frame offsets:
#	150
#	86052
#	120450
#	144275
#	161030
#	168507
#	191407
#	207792
#	221285
#	249692
#	264552
#	274565
#	284337
#	295802
#	309437
#	322410
#	333470
#	341060
#
# Disc length: 4658 seconds
#
# Revision: 1
# Processed by: cddbd v1.5.1PL0 Copyright (c) Steve Scherf et al.
# Submitted via: CDex 1.50Beta5
#
DISCID=18123012
DTITLE=越路吹雪 - 越路吹雪メモリアル-イカルスの星 [CD1]
DYEAR=1900
DGENRE=Pop
TTITLE0=冬の蛍
TTITLE1=おへそ
TTITLE2=かみ
TTITLE3=足の裏のバラード
TTITLE4=おひざ
TTITLE5=ちぶさ
TTITLE6=こしのさんか
TTITLE7=ゆび
TTITLE8=くちびる
TTITLE9=なぞ・なぞ
TTITLE10=まっくろけ節
TTITLE11=デカンショ節
TTITLE12=東雲節
TTITLE13=どんどん節
TTITLE14=都々逸
TTITLE15=どこまでも節
TTITLE16=ノーエ節
TTITLE17=猫じゃ猫じゃ
EXTD=
EXTT0=
EXTT1=
EXTT2=
EXTT3=
EXTT4=
EXTT5=
EXTT6=
EXTT7=
EXTT8=
EXTT9=
EXTT10=
EXTT11=
EXTT12=
EXTT13=
EXTT14=
EXTT15=
EXTT16=
EXTT17=
PLAYORDER=
